<svg xmlns="http://www.w3.org/2000/svg" viewBox="0 0 1600 680" role="img" aria-label="海、白壁、青い扉、オリーブ、花の地中海風景"><defs><linearGradient id="sky" x1="0" y1="0" x2="0" y2="1"><stop stop-color="#dff5ff"/><stop offset="1" stop-color="#ffffff"/></linearGradient><linearGradient id="sea" x1="0" y1="0" x2="0" y2="1"><stop stop-color="#39a8df"/><stop offset="1" stop-color="#0873b0"/></linearGradient><filter id="shadow"><feDropShadow dx="-8" dy="12" stdDeviation="12" flood-color="#58758a" flood-opacity=".22"/></filter></defs><rect width="1600" height="680" fill="url(#sky)"/><rect y="335" width="1600" height="345" fill="url(#sea)"/><g fill="none" stroke="#fff" stroke-opacity=".55" stroke-width="3"><path d="M0 420 Q120 385 240 420 T480 420 T720 420 T960 420"/><path d="M0 470 Q120 435 240 470 T480 470 T720 470 T960 470"/><path d="M0 535 Q120 500 240 535 T480 535 T720 535 T960 535"/><path d="M0 600 Q120 565 240 600 T480 600 T720 600 T960 600"/></g><path d="M690 680 C760 570 840 505 980 470 L1160 680 Z" fill="#eadbc4"/><path d="M760 680 C835 585 905 540 1030 500" fill="none" stroke="#c9b28f" stroke-width="5"/><g filter="url(#shadow)"><path d="M1040 95 Q1040 55 1080 55 H1600 V680 H1040 Z" fill="#fffaf2"/><path d="M1175 680 V245 Q1175 140 1285 140 Q1395 140 1395 245 V680 Z" fill="#063f78"/><path d="M1208 680 V255 Q1208 180 1285 180 Q1362 180 1362 255 V680 Z" fill="#074a89"/><g stroke="#082e55" stroke-width="5"><path d="M1235 205 V680"/><path d="M1285 180 V680"/><path d="M1335 205 V680"/><path d="M1208 310 H1362"/><path d="M1208 450 H1362"/></g><circle cx="1330" cy="438" r="10" fill="#d5aa52"/><rect x="1092" y="290" width="90" height="36" rx="3" fill="#0a4f86"/><text x="1137" y="315" text-anchor="middle" font-family="serif" font-size="20" fill="#fff">AZURE</text></g><g stroke="#6e7045" stroke-width="15" stroke-linecap="round"><path d="M955 505 C950 410 940 335 932 235"/><path d="M932 325 L865 250"/><path d="M935 310 L1000 225"/><path d="M930 270 L895 185"/></g><g fill="#64764a"><circle cx="875" cy="235" r="34"/><circle cx="920" cy="190" r="36"/><circle cx="970" cy="220" r="38"/><circle cx="1000" cy="270" r="34"/><circle cx="905" cy="290" r="39"/><circle cx="850" cy="290" r="29"/><circle cx="965" cy="330" r="34"/></g><ellipse cx="947" cy="545" rx="90" ry="30" fill="#cdbb9a"/><path d="M875 520 H1018 L990 640 H900 Z" fill="#f2eadb" stroke="#d2c4aa" stroke-width="4"/><g fill="#d94377"><circle cx="1450" cy="520" r="13"/><circle cx="1492" cy="475" r="14"/><circle cx="1530" cy="530" r="15"/><circle cx="1570" cy="460" r="13"/><circle cx="1468" cy="580" r="15"/><circle cx="1545" cy="600" r="15"/></g><g stroke="#5e803d" stroke-width="6"><path d="M1460 680 L1450 520"/><path d="M1510 680 L1492 475"/><path d="M1540 680 L1530 530"/><path d="M1580 680 L1570 460"/></g><g fill="none" stroke="#fff" stroke-opacity=".52" stroke-width="2"><path d="M80 170 C330 100 560 120 850 230"/><path d="M40 195 C300 125 550 145 820 250"/><path d="M25 220 C290 150 535 170 790 270"/></g></svg>